<?xml version="1.0" encoding="utf-8"?>
<!-- Generator: Adobe Illustrator 21.1.0, SVG Export Plug-In . SVG Version: 6.00 Build 0)  -->
<svg version="1.1" id="Capa_1" xmlns="http://www.w3.org/2000/svg" xmlns:xlink="http://www.w3.org/1999/xlink" x="0px" y="0px"
	 viewBox="0 0 410.978973 185.990692" style="enable-background:new 0 0 410.978973 185.990692;" xml:space="preserve">
<g>
	<rect style="fill:#ED1B24;" width="410.978973" height="185.990692"/>
	<polygon style="fill:#FFFFFF;" points="354.898895,26.404787 377.898895,26.404787 377.898895,135.404785 397.398895,135.404785 
		397.398895,162.904785 354.898895,162.904785 	"/>
	<g>
		<circle style="fill:none;stroke:#FFFFFF;stroke-width:1.66667;" cx="390.648895" cy="33.654789" r="8.75"/>
		<path style="fill:#FFFFFF;" d="M387.231903,38.156788v-9.179689h4.071289c0.81839,0,1.439484,0.0825,1.86618,0.247501
			c0.423828,0.1651,0.763702,0.456099,1.018616,0.873999c0.254791,0.417501,0.382812,0.8794,0.382812,1.385302
			c0,0.6514-0.211914,1.200701-0.632812,1.647501c-0.420898,0.447197-1.072296,0.7309-1.953186,0.851997
			c0.322296,0.1548,0.566376,0.306202,0.733398,0.457001c0.354492,0.325199,0.690491,0.731499,1.00589,1.219799l1.587891,2.49659
			h-1.518585l-1.212921-1.908287c-0.355377-0.550713-0.6474-0.971603-0.876892-1.264103
			c-0.229492-0.2915-0.434601-0.496098-0.615204-0.6138c-0.181702-0.117699-0.367188-0.1992-0.554688-0.245098
			c-0.138702-0.0298-0.363312-0.0439-0.675781-0.0439h-1.408234v4.075188H387.231903z M388.449677,33.026398h2.609406
			c0.554596,0,0.98822-0.057098,1.301697-0.172398c0.313507-0.114212,0.551819-0.297302,0.714905-0.549801
			c0.162994-0.252411,0.24411-0.5268,0.24411-0.8223c0-0.434-0.157196-0.790001-0.472717-1.070299
			c-0.315399-0.278812-0.8125-0.419401-1.493103-0.419401h-2.904297V33.026398z"/>
	</g>
	<path style="fill:#FFFFFF;" d="M16.898899,162.404785v-136h31l11,57l12.500004-57h30v122.5l19.5-122.5h30.499992l19,122.5v-122
		h40.5c0,0,14,2.5,21,22.000002l-3-22.500002h24.5l11.5,70.5l12-70h69v25.500002h-20.5v27.999996h19.5v28.5h-19v26h20v27.5h-44.5
		v-131l-23,131h-27.5l-14.5-87c0,0-2.5,24-16,35l17.5,52h-24l-17-45.5v45.5h-48.5l-2.5-13h-18.499992l-4,13h-46v-50l-12,50
		H52.898899l-11-49.5v49L16.898899,162.404785z M143.398895,122.904785l-7-41.5l-6,41.5H143.398895z M196.398895,91.404785
		c16.5-1,15-21.5,15-21.5c-2.5-19.999996-15-18.999996-15-18.999996V91.404785z"/>
</g>
</svg>
